<svg width="20" height="20" viewBox="0 0 256 256" version="1.1" xmlns="http://www.w3.org/2000/svg">
	<g transform="translate(0 447.64)">
		<path d="m65.245-411.65a0.68257 0.68257 0 0 1-0.68256 0.68257 0.68257 0.68257 0 0 1-0.68257-0.68257 0.68257 0.68257 0 0 1 0.68257-0.68257 0.68257 0.68257 0 0 1 0.68256 0.68257zm-45.815-15.135a1.0239 1.0239 0 0 1-1.0239 1.0239 1.0239 1.0239 0 0 1-1.0239-1.0239 1.0239 1.0239 0 0 1 1.0239-1.0238 1.0239 1.0239 0 0 1 1.0239 1.0238zm34.393-4.467a1.7064 1.7064 0 0 1-1.7064 1.7064 1.7064 1.7064 0 0 1-1.7064-1.7064 1.7064 1.7064 0 0 1 1.7064-1.7064 1.7064 1.7064 0 0 1 1.7064 1.7064zm161.01 194.03a2.7303 2.7303 0 0 1-2.7303 2.7303 2.7303 2.7303 0 0 1-2.7303-2.7303 2.7303 2.7303 0 0 1 2.7303-2.7303 2.7303 2.7303 0 0 1 2.7303 2.7303zm-160.76-147.3a4.4367 4.4367 0 0 1-4.4367 4.4367 4.4367 4.4367 0 0 1-4.4367-4.4367 4.4367 4.4367 0 0 1 4.4367-4.4367 4.4367 4.4367 0 0 1 4.4367 4.4367zm121.87 55.979a7.167 7.167 0 0 1-7.167 7.167 7.167 7.167 0 0 1-7.167-7.167 7.167 7.167 0 0 1 7.167-7.167 7.167 7.167 0 0 1 7.167 7.167zm47.219 38.46a11.518 11.518 0 0 1-11.518 11.518 11.518 11.518 0 0 1-11.518-11.518 11.518 11.518 0 0 1 11.518-11.518 11.518 11.518 0 0 1 11.518 11.518zm-84.526-108.72a30.204 30.204 0 0 1-30.204 30.204 30.204 30.204 0 0 1-30.204-30.204 30.204 30.204 0 0 1 30.204-30.204 30.204 30.204 0 0 1 30.204 30.204zm104.87 12.55a48.889 48.889 0 0 1-48.889 48.889 48.889 48.889 0 0 1-48.889-48.889 48.889 48.889 0 0 1 48.889-48.889 48.889 48.889 0 0 1 48.889 48.889zm-72.815 103.02a79.093 79.093 0 0 1-79.093 79.093 79.093 79.093 0 0 1-79.093-79.093 79.093 79.093 0 0 1 79.093-79.093 79.093 79.093 0 0 1 79.093 79.093z" color="#85a9f0" fill="#85a9f0" stroke-width=".0016893"/>
	</g>
</svg>
